<svg id="visual" viewBox="0 0 900 600" width="900" height="600" xmlns="http://www.w3.org/2000/svg" xmlns:xlink="http://www.w3.org/1999/xlink" version="1.1"><rect x="0" y="0" width="900" height="600" fill="#b1dafa"></rect><defs><linearGradient id="grad1_0" x1="33.3%" y1="0%" x2="100%" y2="100%"><stop offset="20%" stop-color="#ffffff" stop-opacity="1"></stop><stop offset="80%" stop-color="#ffffff" stop-opacity="1"></stop></linearGradient></defs><defs><linearGradient id="grad1_1" x1="33.3%" y1="0%" x2="100%" y2="100%"><stop offset="20%" stop-color="#ffffff" stop-opacity="1"></stop><stop offset="80%" stop-color="#b1dafa" stop-opacity="1"></stop></linearGradient></defs><defs><linearGradient id="grad2_0" x1="0%" y1="0%" x2="66.7%" y2="100%"><stop offset="20%" stop-color="#ffffff" stop-opacity="1"></stop><stop offset="80%" stop-color="#ffffff" stop-opacity="1"></stop></linearGradient></defs><defs><linearGradient id="grad2_1" x1="0%" y1="0%" x2="66.7%" y2="100%"><stop offset="20%" stop-color="#b1dafa" stop-opacity="1"></stop><stop offset="80%" stop-color="#ffffff" stop-opacity="1"></stop></linearGradient></defs><g transform="translate(900, 0)"><path d="M0 486.7C-62.4 477.3 -124.7 467.9 -184.8 446.2C-244.9 424.6 -302.8 390.8 -344.2 344.2C-385.6 297.6 -410.4 238.2 -431.5 178.7C-452.5 119.2 -469.6 59.6 -486.7 0L0 0Z" fill="#d9ecfd"></path><path d="M0 243.4C-31.2 238.7 -62.4 233.9 -92.4 223.1C-122.5 212.3 -151.4 195.4 -172.1 172.1C-192.8 148.8 -205.2 119.1 -215.7 89.4C-226.2 59.6 -234.8 29.8 -243.4 0L0 0Z" fill="#ffffff"></path></g><g transform="translate(0, 600)"><path d="M0 -486.7C60.2 -471.1 120.4 -455.4 179.9 -434.2C239.3 -413 297.9 -386.2 344.2 -344.2C390.5 -302.1 424.5 -244.8 446.2 -184.8C467.9 -124.9 477.3 -62.5 486.7 0L0 0Z" fill="#d9ecfd"></path><path d="M0 -243.4C30.1 -235.5 60.2 -227.7 89.9 -217.1C119.6 -206.5 148.9 -193.1 172.1 -172.1C195.2 -151.1 212.3 -122.4 223.1 -92.4C234 -62.5 238.7 -31.2 243.4 0L0 0Z" fill="#ffffff"></path></g></svg>