<svg id="visual" viewBox="0 0 900 600" width="900" height="600" xmlns="http://www.w3.org/2000/svg" xmlns:xlink="http://www.w3.org/1999/xlink" version="1.1"><rect x="0" y="0" width="900" height="600" fill="#469cde"></rect><defs><linearGradient id="grad1_0" x1="33.3%" y1="0%" x2="100%" y2="100%"><stop offset="20%" stop-color="#ffffff" stop-opacity="1"></stop><stop offset="80%" stop-color="#ffffff" stop-opacity="1"></stop></linearGradient></defs><defs><linearGradient id="grad1_1" x1="33.3%" y1="0%" x2="100%" y2="100%"><stop offset="20%" stop-color="#ffffff" stop-opacity="1"></stop><stop offset="80%" stop-color="#469cde" stop-opacity="1"></stop></linearGradient></defs><defs><linearGradient id="grad2_0" x1="0%" y1="0%" x2="66.7%" y2="100%"><stop offset="20%" stop-color="#ffffff" stop-opacity="1"></stop><stop offset="80%" stop-color="#ffffff" stop-opacity="1"></stop></linearGradient></defs><defs><linearGradient id="grad2_1" x1="0%" y1="0%" x2="66.7%" y2="100%"><stop offset="20%" stop-color="#469cde" stop-opacity="1"></stop><stop offset="80%" stop-color="#ffffff" stop-opacity="1"></stop></linearGradient></defs><g transform="translate(900, 0)"><path d="M0 486.7C-62.4 473.5 -124.9 460.3 -180.2 435.1C-235.6 410 -283.8 372.9 -330.9 330.9C-378 289 -423.9 242.2 -449.7 186.3C-475.5 130.3 -481.1 65.2 -486.7 0L0 0Z" fill="#aeccef"></path><path d="M0 243.4C-31.2 236.8 -62.4 230.2 -90.1 217.6C-117.8 205 -141.9 186.4 -165.5 165.5C-189 144.5 -212 121.1 -224.8 93.1C-237.7 65.2 -240.6 32.6 -243.4 0L0 0Z" fill="#ffffff"></path></g><g transform="translate(0, 600)"><path d="M0 -486.7C59.3 -469.5 118.6 -452.2 178.7 -431.5C238.9 -410.7 299.9 -386.5 344.2 -344.2C388.5 -301.9 416 -241.4 437 -181C458 -120.6 472.4 -60.3 486.7 0L0 0Z" fill="#aeccef"></path><path d="M0 -243.4C29.6 -234.7 59.3 -226.1 89.4 -215.7C119.4 -205.4 149.9 -193.3 172.1 -172.1C194.2 -150.9 208 -120.7 218.5 -90.5C229 -60.3 236.2 -30.2 243.4 0L0 0Z" fill="#ffffff"></path></g></svg>