<svg id="visual" viewBox="0 0 900 600" width="900" height="600" xmlns="http://www.w3.org/2000/svg" xmlns:xlink="http://www.w3.org/1999/xlink" version="1.1"><path d="M0 91L64 91L64 85L129 85L129 115L193 115L193 91L257 91L257 121L321 121L321 79L386 79L386 73L450 73L450 115L514 115L514 115L579 115L579 91L643 91L643 85L707 85L707 97L771 97L771 103L836 103L836 103L900 103L900 103L900 0L900 0L836 0L836 0L771 0L771 0L707 0L707 0L643 0L643 0L579 0L579 0L514 0L514 0L450 0L450 0L386 0L386 0L321 0L321 0L257 0L257 0L193 0L193 0L129 0L129 0L64 0L64 0L0 0Z" fill="#cadbec"></path><path d="M0 217L64 217L64 229L129 229L129 211L193 211L193 223L257 223L257 271L321 271L321 169L386 169L386 235L450 235L450 259L514 259L514 241L579 241L579 211L643 211L643 205L707 205L707 199L771 199L771 229L836 229L836 247L900 247L900 253L900 101L900 101L836 101L836 101L771 101L771 95L707 95L707 83L643 83L643 89L579 89L579 113L514 113L514 113L450 113L450 71L386 71L386 77L321 77L321 119L257 119L257 89L193 89L193 113L129 113L129 83L64 83L64 89L0 89Z" fill="#f6f9fc"></path><path d="M0 403L64 403L64 385L129 385L129 463L193 463L193 433L257 433L257 397L321 397L321 343L386 343L386 457L450 457L450 397L514 397L514 397L579 397L579 433L643 433L643 427L707 427L707 445L771 445L771 397L836 397L836 397L900 397L900 427L900 251L900 245L836 245L836 227L771 227L771 197L707 197L707 203L643 203L643 209L579 209L579 239L514 239L514 257L450 257L450 233L386 233L386 167L321 167L321 269L257 269L257 221L193 221L193 209L129 209L129 227L64 227L64 215L0 215Z" fill="#f6f9fc"></path><path d="M0 601L64 601L64 601L129 601L129 601L193 601L193 601L257 601L257 601L321 601L321 601L386 601L386 601L450 601L450 601L514 601L514 601L579 601L579 601L643 601L643 601L707 601L707 601L771 601L771 601L836 601L836 601L900 601L900 601L900 425L900 395L836 395L836 395L771 395L771 443L707 443L707 425L643 425L643 431L579 431L579 395L514 395L514 395L450 395L450 455L386 455L386 341L321 341L321 395L257 395L257 431L193 431L193 461L129 461L129 383L64 383L64 401L0 401Z" fill="#cadbec"></path></svg>