<svg id="visual" viewBox="0 0 900 600" width="900" height="600" xmlns="http://www.w3.org/2000/svg" xmlns:xlink="http://www.w3.org/1999/xlink" version="1.1"><path d="M0 127L82 127L82 85L164 85L164 127L245 127L245 79L327 79L327 73L409 73L409 97L491 97L491 49L573 49L573 73L655 73L655 127L736 127L736 43L818 43L818 55L900 55L900 55L900 0L900 0L818 0L818 0L736 0L736 0L655 0L655 0L573 0L573 0L491 0L491 0L409 0L409 0L327 0L327 0L245 0L245 0L164 0L164 0L82 0L82 0L0 0Z" fill="#6981fa"></path><path d="M0 331L82 331L82 229L164 229L164 247L245 247L245 169L327 169L327 205L409 205L409 175L491 175L491 175L573 175L573 235L655 235L655 223L736 223L736 241L818 241L818 289L900 289L900 373L900 53L900 53L818 53L818 41L736 41L736 125L655 125L655 71L573 71L573 47L491 47L491 95L409 95L409 71L327 71L327 77L245 77L245 125L164 125L164 83L82 83L82 125L0 125Z" fill="#5d6be8"></path><path d="M0 385L82 385L82 331L164 331L164 301L245 301L245 253L327 253L327 265L409 265L409 217L491 217L491 277L573 277L573 307L655 307L655 295L736 295L736 289L818 289L818 331L900 331L900 427L900 371L900 287L818 287L818 239L736 239L736 221L655 221L655 233L573 233L573 173L491 173L491 173L409 173L409 203L327 203L327 167L245 167L245 245L164 245L164 227L82 227L82 329L0 329Z" fill="#5354d6"></path><path d="M0 475L82 475L82 493L164 493L164 463L245 463L245 505L327 505L327 457L409 457L409 457L491 457L491 547L573 547L573 535L655 535L655 517L736 517L736 451L818 451L818 493L900 493L900 541L900 425L900 329L818 329L818 287L736 287L736 293L655 293L655 305L573 305L573 275L491 275L491 215L409 215L409 263L327 263L327 251L245 251L245 299L164 299L164 329L82 329L82 383L0 383Z" fill="#4b3dc3"></path><path d="M0 601L82 601L82 601L164 601L164 601L245 601L245 601L327 601L327 601L409 601L409 601L491 601L491 601L573 601L573 601L655 601L655 601L736 601L736 601L818 601L818 601L900 601L900 601L900 539L900 491L818 491L818 449L736 449L736 515L655 515L655 533L573 533L573 545L491 545L491 455L409 455L409 455L327 455L327 503L245 503L245 461L164 461L164 491L82 491L82 473L0 473Z" fill="#4323b0"></path></svg>